 http://img4.imageshack.us/img4/5585/tnt24infotextuality2011.jpg

Country.......: Canada
Genre.........: Comedy, Romance
Date release..: 10.09.2010 [World]
Director......: Warren P. Sonoda
Writers.......: Liam Card
Duration......: 90 min.
More..........: http://www.imdb.com/title/tt1573483
Trailer.......:

Pilot :
Two people attempt to get into a relationship, while exiting the multiple relationships they were each managing through their Blackberries before they met. 

Cats :
Jason Lewis   	 ...  	Breslin
Carly Pope 	... 	Simone
Kristen Hager 	... 	Dani
Eric McCormack 	... 	Clive
Liam Card 	... 	Michael
Holly Elissa Lamaro 	... 	Kara (as Holly Dignard)
Supinder Wraich 	... 	Heather
Jim Annan 	... 	Jim
Marcello Cabezas 	... 	Jacob
Kelda Cummings 	... 	Fiance Knowles
Anna Cyzon 	... 	Erin
Marianthi Evans 	... 	Jenny
Dave Hehn 	... 	Fiance
Kris Holden Ried 	... 	Colin (as Kristen Holden Ried)
Alastair Love 	... 	Jerry 

Data Technical :
!!! SAMPLE !!!
Audio.....: English
Subtitles.: None
Format                           : AVI
Format/Info                      : Audio Video Interleave
File size                        : 700 MiB
Duration                         : 1h 30mn
Overall bit rate                 : 1 084 Kbps
Writing application              : VirtualDubMod 1.5.10.2 (build 2540/release)
Writing library                  : VirtualDubMod build 2540/release
Video
ID                               : 0
Format                           : MPEG-4 Visual
Format profile                   : Advanced Simple@L5
Format settings, BVOP            : Yes
Format settings, QPel            : No
Format settings, GMC             : No warppoints
Format settings, Matrix          : Default (H.263)
Codec ID                         : XVID
Codec ID/Hint                    : XviD
Duration                         : 1h 30mn
Bit rate                         : 942 Kbps
Width                            : 624 pixels
Height                           : 352 pixels
Display aspect ratio             : 16:9
Frame rate                       : 25.000 fps
Color space                      : YUV
Chroma subsampling               : 4:2:0
Bit depth                        : 8 bits
Scan type                        : Progressive
Bits/(Pixel*Frame)               : 0.172
Stream size                      : 609 MiB (87%)
Writing library                  : XviD 62
Audio
ID                               : 1
Format                           : MPEG Audio
Format version                   : Version 1
Format profile                   : Layer 3
Mode                             : Joint stereo
Mode extension                   : MS Stereo
Codec ID                         : 55
Codec ID/Hint                    : MP3
Duration                         : 1h 30mn
Bit rate mode                    : Variable
Bit rate                         : 128 Kbps
Channel(s)                       : 2 channels
Sampling rate                    : 48.0 KHz
Stream size                      : 82.9 MiB (12%)
Alignment                        : Aligned on interleaves
Interleave, duration             : 24 ms (0.60 video frame)
Interleave, preload duration     : 143 ms
Writing library                  : LAME3.90.
Encoding settings                : -m j -V 4 -q 2 -lowpass 17.6 --abr 128

Screen : 
http://img64.imageshack.us/img64/6392/textuality2011s1.jpg 
http://img600.imageshack.us/img600/9112/textuality2011s2.jpg 
http://img546.imageshack.us/img546/1369/textuality2011s3.jpg 
http://img714.imageshack.us/img714/5365/textuality2011s4.jpg 
http://img685.imageshack.us/img685/8336/textuality2011s5.jpg